<svg width="17" height="17" viewBox="0 0 17 17" fill="none" xmlns="http://www.w3.org/2000/svg">
<mask id="mask0_1967_29591" style="mask-type:luminance" maskUnits="userSpaceOnUse" x="0" y="0" width="17" height="17">
<path d="M17 0H0V17H17V0Z" fill="white"/>
</mask>
<g mask="url(#mask0_1967_29591)">
<path d="M15.5859 8.64861V3.58594C8.40063 6.39444 5.77356 8.53818 6.48817 15.2998C6.52351 15.6343 6.72262 15.9347 7.02781 16.0761C7.59511 16.3389 8.10688 16.4835 8.50259 16.4835C10.5264 16.4835 15.5859 12.7032 15.5859 8.64861Z" fill="url(#paint0_linear_1967_29591)"/>
<path d="M15.5859 8.64861V3.58594C8.40063 6.39444 5.77356 8.53818 6.48817 15.2998C6.52351 15.6343 6.72262 15.9347 7.02781 16.0761C7.59511 16.3389 8.10688 16.4835 8.50259 16.4835C10.5264 16.4835 15.5859 12.7032 15.5859 8.64861Z" fill="url(#paint1_radial_1967_29591)" fill-opacity="0.6"/>
<path d="M8.49206 0.53125C9.85411 0.53125 12.5912 1.21996 14.2355 1.67032C14.3892 1.71243 14.5333 1.75323 14.6659 1.79166C15.2127 1.95018 15.5754 2.45583 15.5754 3.02511V3.8624C15.4129 7.59248 14.2176 8.67751 10.8814 11.3638C10.4432 11.7516 9.99287 12.1204 9.53571 12.4949C8.88061 13.0314 8.21141 13.5795 7.54381 14.2112C7.28888 14.4525 7.12982 14.794 7.12982 15.1727C7.12982 15.7418 7.48895 16.2269 7.99293 16.4139C7.87007 16.3864 7.74094 16.35 7.60664 16.3049C6.38653 15.896 4.73938 14.7819 3.44982 13.3025C2.43308 6.96734 4.4259 3.8624 8.49206 0.53125Z" fill="url(#paint2_radial_1967_29591)"/>
<path d="M8.49206 0.53125C9.85411 0.53125 12.5912 1.21996 14.2355 1.67032C14.3892 1.71243 14.5333 1.75323 14.6659 1.79166C15.2127 1.95018 15.5754 2.45583 15.5754 3.02511V3.8624C15.4129 7.59248 14.2176 8.67751 10.8814 11.3638C10.4432 11.7516 9.99287 12.1204 9.53571 12.4949C8.88061 13.0314 8.21141 13.5795 7.54381 14.2112C7.28888 14.4525 7.12982 14.794 7.12982 15.1727C7.12982 15.7418 7.48895 16.2269 7.99293 16.4139C7.87007 16.3864 7.74094 16.35 7.60664 16.3049C6.38653 15.896 4.73938 14.7819 3.44982 13.3025C2.43308 6.96734 4.4259 3.8624 8.49206 0.53125Z" fill="url(#paint3_radial_1967_29591)" fill-opacity="0.7"/>
<path d="M8.49206 0.53125C9.85411 0.53125 12.5912 1.21996 14.2355 1.67032C14.3892 1.71243 14.5333 1.75323 14.6659 1.79166C15.2127 1.95018 15.5754 2.45583 15.5754 3.02511V3.8624C15.4129 7.59248 14.2176 8.67751 10.8814 11.3638C10.4432 11.7516 9.99287 12.1204 9.53571 12.4949C8.88061 13.0314 8.21141 13.5795 7.54381 14.2112C7.28888 14.4525 7.12982 14.794 7.12982 15.1727C7.12982 15.7418 7.48895 16.2269 7.99293 16.4139C7.87007 16.3864 7.74094 16.35 7.60664 16.3049C6.38653 15.896 4.73938 14.7819 3.44982 13.3025C2.43308 6.96734 4.4259 3.8624 8.49206 0.53125Z" fill="url(#paint4_radial_1967_29591)" fill-opacity="0.7"/>
<path d="M8.49206 0.53125C9.85411 0.53125 12.5912 1.21996 14.2355 1.67032C14.3892 1.71243 14.5333 1.75323 14.6659 1.79166C15.2127 1.95018 15.5754 2.45583 15.5754 3.02511V3.8624C15.4129 7.59248 14.2176 8.67751 10.8814 11.3638C10.4432 11.7516 9.99287 12.1204 9.53571 12.4949C8.88061 13.0314 8.21141 13.5795 7.54381 14.2112C7.28888 14.4525 7.12982 14.794 7.12982 15.1727C7.12982 15.7418 7.48895 16.2269 7.99293 16.4139C7.87007 16.3864 7.74094 16.35 7.60664 16.3049C6.38653 15.896 4.73938 14.7819 3.44982 13.3025C2.43308 6.96734 4.4259 3.8624 8.49206 0.53125Z" fill="url(#paint5_radial_1967_29591)" fill-opacity="0.5"/>
<path d="M2.35895 1.77887C3.92281 1.3413 7.01731 0.53125 8.4945 0.53125C8.60086 0.53125 8.71564 0.535571 8.83762 0.543717C10.1879 0.674085 11.2436 1.81202 11.2436 3.19653C11.2436 3.69924 11.1044 4.16943 10.8625 4.5707C10.3453 5.60122 9.49892 6.41112 8.21085 7.47161C7.84085 7.77622 7.41659 8.11247 6.99365 8.44765C6.59397 8.76446 6.19536 9.08037 5.84487 9.36774C4.99339 10.0659 4.47297 10.4926 4.18677 11.0281C3.91424 11.4461 3.75589 11.9454 3.75589 12.4816C3.75589 13.2667 4.09533 13.9724 4.63543 14.4602C4.65257 14.4795 4.66993 14.4982 4.68749 14.5164C4.69224 14.5235 4.69688 14.5305 4.70145 14.5375C4.5301 14.3909 4.36046 14.2377 4.19389 14.0783C2.67604 12.6265 1.41113 10.6677 1.41113 8.64043V3.03914C1.41127 2.4526 1.79409 1.93694 2.35895 1.77887Z" fill="url(#paint6_radial_1967_29591)"/>
<path d="M2.35895 1.77887C3.92281 1.3413 7.01731 0.53125 8.4945 0.53125C8.60086 0.53125 8.71564 0.535571 8.83762 0.543717C10.1879 0.674085 11.2436 1.81202 11.2436 3.19653C11.2436 3.69924 11.1044 4.16943 10.8625 4.5707C10.3453 5.60122 9.49892 6.41112 8.21085 7.47161C7.84085 7.77622 7.41659 8.11247 6.99365 8.44765C6.59397 8.76446 6.19536 9.08037 5.84487 9.36774C4.99339 10.0659 4.47297 10.4926 4.18677 11.0281C3.91424 11.4461 3.75589 11.9454 3.75589 12.4816C3.75589 13.2667 4.09533 13.9724 4.63543 14.4602C4.65257 14.4795 4.66993 14.4982 4.68749 14.5164C4.69224 14.5235 4.69688 14.5305 4.70145 14.5375C4.5301 14.3909 4.36046 14.2377 4.19389 14.0783C2.67604 12.6265 1.41113 10.6677 1.41113 8.64043V3.03914C1.41127 2.4526 1.79409 1.93694 2.35895 1.77887Z" fill="url(#paint7_linear_1967_29591)" fill-opacity="0.8"/>
<path d="M2.35895 1.77887C3.92281 1.3413 7.01731 0.53125 8.4945 0.53125C8.60086 0.53125 8.71564 0.535571 8.83762 0.543717C10.1879 0.674085 11.2436 1.81202 11.2436 3.19653C11.2436 3.69924 11.1044 4.16943 10.8625 4.5707C10.3453 5.60122 9.49892 6.41112 8.21085 7.47161C7.84085 7.77622 7.41659 8.11247 6.99365 8.44765C6.59397 8.76446 6.19536 9.08037 5.84487 9.36774C4.99339 10.0659 4.47297 10.4926 4.18677 11.0281C3.91424 11.4461 3.75589 11.9454 3.75589 12.4816C3.75589 13.2667 4.09533 13.9724 4.63543 14.4602C4.65257 14.4795 4.66993 14.4982 4.68749 14.5164C4.69224 14.5235 4.69688 14.5305 4.70145 14.5375C4.5301 14.3909 4.36046 14.2377 4.19389 14.0783C2.67604 12.6265 1.41113 10.6677 1.41113 8.64043V3.03914C1.41127 2.4526 1.79409 1.93694 2.35895 1.77887Z" fill="url(#paint8_radial_1967_29591)" fill-opacity="0.5"/>
</g>
<defs>
<linearGradient id="paint0_linear_1967_29591" x1="14.8583" y1="8.22106" x2="5.44925" y2="15.7621" gradientUnits="userSpaceOnUse">
<stop offset="0.716383" stop-color="#143DE0"/>
<stop offset="0.97828" stop-color="#003375"/>
</linearGradient>
<radialGradient id="paint1_radial_1967_29591" cx="0" cy="0" r="1" gradientUnits="userSpaceOnUse" gradientTransform="translate(9.58507 10.0347) rotate(50.2877) scale(8.38305 25.0616)">
<stop offset="0.227837" stop-color="#003375"/>
<stop offset="0.434167" stop-color="#003375" stop-opacity="0.1"/>
</radialGradient>
<radialGradient id="paint2_radial_1967_29591" cx="0" cy="0" r="1" gradientUnits="userSpaceOnUse" gradientTransform="translate(16.0382 -3.80138) rotate(119.584) scale(26.7885 17.2192)">
<stop offset="0.165327" stop-color="#23C0FE"/>
<stop offset="0.534" stop-color="#1C91FF"/>
</radialGradient>
<radialGradient id="paint3_radial_1967_29591" cx="0" cy="0" r="1" gradientUnits="userSpaceOnUse" gradientTransform="translate(6.93354 5.79909) rotate(43.3819) scale(4.46055 7.93702)">
<stop offset="0.143522" stop-color="#1B44B1"/>
<stop offset="1" stop-color="#045ED1" stop-opacity="0"/>
</radialGradient>
<radialGradient id="paint4_radial_1967_29591" cx="0" cy="0" r="1" gradientUnits="userSpaceOnUse" gradientTransform="translate(13.6438 9.16796) rotate(28.8937) scale(10.054 14.7367)">
<stop offset="0.727798" stop-color="#045ED1" stop-opacity="0"/>
<stop offset="0.951239" stop-color="#1B44B1"/>
</radialGradient>
<radialGradient id="paint5_radial_1967_29591" cx="0" cy="0" r="1" gradientUnits="userSpaceOnUse" gradientTransform="translate(9.98887 4.96786) rotate(-111.097) scale(16.2853 12.4481)">
<stop offset="0.642036" stop-color="#11A7FF" stop-opacity="0"/>
<stop offset="0.796268" stop-color="#6AB3FF"/>
</radialGradient>
<radialGradient id="paint6_radial_1967_29591" cx="0" cy="0" r="1" gradientUnits="userSpaceOnUse" gradientTransform="translate(11.2436 -0.224931) rotate(126.614) scale(19.5489 21.8299)">
<stop stop-color="#92EEFE"/>
<stop offset="0.212749" stop-color="#35DDFF"/>
<stop offset="0.612478" stop-color="#15BDFB"/>
<stop offset="0.802844" stop-color="#08B1F9"/>
</radialGradient>
<linearGradient id="paint7_linear_1967_29591" x1="6.71021" y1="6.09333" x2="1.41113" y2="6.09333" gradientUnits="userSpaceOnUse">
<stop offset="0.110619" stop-color="#22CBFD" stop-opacity="0"/>
<stop offset="0.97092" stop-color="#92DEFF"/>
</linearGradient>
<radialGradient id="paint8_radial_1967_29591" cx="0" cy="0" r="1" gradientUnits="userSpaceOnUse" gradientTransform="translate(7.41213 2.8107) rotate(-87.7234) scale(15.3465 8.14396)">
<stop offset="0.657787" stop-color="#92DEFF" stop-opacity="0"/>
<stop offset="0.852025" stop-color="#92DEFF"/>
</radialGradient>
</defs>
</svg>
