<svg width="17" height="17" viewBox="0 0 17 17" fill="none" xmlns="http://www.w3.org/2000/svg">
<g clip-path="url(#clip0_1967_29308)">
<path d="M8.43555 7.19922H13.63C15.0644 7.19922 16.2272 8.36457 16.2272 9.80209V14.1402C16.2272 15.5777 15.0644 16.7431 13.63 16.7431C12.1956 16.7431 11.0328 15.5777 11.0328 14.1402V9.80209C11.0328 8.36457 9.86995 7.19922 8.43555 7.19922Z" fill="url(#paint0_radial_1967_29308)"/>
<path d="M2.37598 8.9349C2.37598 7.49738 3.5388 6.33203 4.9732 6.33203H8.43616C9.87056 6.33203 11.0334 7.49738 11.0334 8.9349V14.1406C11.0334 15.5782 12.1962 16.7435 13.6306 16.7435L6.70464 16.7435C4.31398 16.7435 2.37598 14.8012 2.37598 12.4053V8.9349Z" fill="url(#paint1_radial_1967_29308)"/>
<path d="M2.37598 8.9349C2.37598 7.49738 3.5388 6.33203 4.9732 6.33203H8.43616C9.87056 6.33203 11.0334 7.49738 11.0334 8.9349V14.1406C11.0334 15.5782 12.1962 16.7435 13.6306 16.7435L6.70464 16.7435C4.31398 16.7435 2.37598 14.8012 2.37598 12.4053V8.9349Z" fill="url(#paint2_linear_1967_29308)" fill-opacity="0.7"/>
<path d="M2.37598 8.9349C2.37598 7.49738 3.5388 6.33203 4.9732 6.33203H8.43616C9.87056 6.33203 11.0334 7.49738 11.0334 8.9349V14.1406C11.0334 15.5782 12.1962 16.7435 13.6306 16.7435L6.70464 16.7435C4.31398 16.7435 2.37598 14.8012 2.37598 12.4053V8.9349Z" fill="url(#paint3_radial_1967_29308)" fill-opacity="0.7"/>
<path d="M13.1985 6.3303C14.3939 6.3303 15.3629 5.35917 15.3629 4.16124C15.3629 2.96332 14.3939 1.99219 13.1985 1.99219C12.0032 1.99219 11.0342 2.96332 11.0342 4.16124C11.0342 5.35917 12.0032 6.3303 13.1985 6.3303Z" fill="url(#paint4_radial_1967_29308)"/>
<path d="M13.1985 6.3303C14.3939 6.3303 15.3629 5.35917 15.3629 4.16124C15.3629 2.96332 14.3939 1.99219 13.1985 1.99219C12.0032 1.99219 11.0342 2.96332 11.0342 4.16124C11.0342 5.35917 12.0032 6.3303 13.1985 6.3303Z" fill="url(#paint5_radial_1967_29308)" fill-opacity="0.46"/>
<path d="M13.1985 6.3303C14.3939 6.3303 15.3629 5.35917 15.3629 4.16124C15.3629 2.96332 14.3939 1.99219 13.1985 1.99219C12.0032 1.99219 11.0342 2.96332 11.0342 4.16124C11.0342 5.35917 12.0032 6.3303 13.1985 6.3303Z" fill="url(#paint6_radial_1967_29308)" fill-opacity="0.4"/>
<path d="M6.70464 5.46355C8.13904 5.46355 9.30185 4.2982 9.30185 2.86068C9.30185 1.42316 8.13904 0.257812 6.70464 0.257812C5.27024 0.257812 4.10742 1.42316 4.10742 2.86068C4.10742 4.2982 5.27024 5.46355 6.70464 5.46355Z" fill="url(#paint7_radial_1967_29308)"/>
<path d="M6.70464 5.46355C8.13904 5.46355 9.30185 4.2982 9.30185 2.86068C9.30185 1.42316 8.13904 0.257812 6.70464 0.257812C5.27024 0.257812 4.10742 1.42316 4.10742 2.86068C4.10742 4.2982 5.27024 5.46355 6.70464 5.46355Z" fill="url(#paint8_radial_1967_29308)" fill-opacity="0.6"/>
<path d="M6.70464 5.46355C8.13904 5.46355 9.30185 4.2982 9.30185 2.86068C9.30185 1.42316 8.13904 0.257812 6.70464 0.257812C5.27024 0.257812 4.10742 1.42316 4.10742 2.86068C4.10742 4.2982 5.27024 5.46355 6.70464 5.46355Z" fill="url(#paint9_radial_1967_29308)" fill-opacity="0.5"/>
<path d="M6.16361 8.5H2.05136C1.27439 8.5 0.644531 9.13123 0.644531 9.90989V14.0311C0.644531 14.8098 1.27439 15.441 2.05136 15.441H6.16361C6.94058 15.441 7.57044 14.8098 7.57044 14.0311V9.90989C7.57044 9.13123 6.94058 8.5 6.16361 8.5Z" fill="url(#paint10_radial_1967_29308)"/>
<path d="M6.16361 8.5H2.05136C1.27439 8.5 0.644531 9.13123 0.644531 9.90989V14.0311C0.644531 14.8098 1.27439 15.441 2.05136 15.441H6.16361C6.94058 15.441 7.57044 14.8098 7.57044 14.0311V9.90989C7.57044 9.13123 6.94058 8.5 6.16361 8.5Z" fill="url(#paint11_radial_1967_29308)" fill-opacity="0.7"/>
<path d="M5.61393 10.7157H4.55465V13.9545H3.66086V10.7157H2.60156V9.98828H5.61393V10.7157Z" fill="white"/>
</g>
<defs>
<radialGradient id="paint0_radial_1967_29308" cx="0" cy="0" r="1" gradientUnits="userSpaceOnUse" gradientTransform="translate(16.1392 8.14228) scale(5.83439 14.4326)">
<stop stop-color="#A98AFF"/>
<stop offset="0.14" stop-color="#8C75FF"/>
<stop offset="0.565" stop-color="#5F50E2"/>
<stop offset="0.9" stop-color="#3C2CB8"/>
</radialGradient>
<radialGradient id="paint1_radial_1967_29308" cx="0" cy="0" r="1" gradientTransform="matrix(5.2756 13.1879 -13.3083 5.34698 2.72768 5.63793)" gradientUnits="userSpaceOnUse">
<stop stop-color="#85C2FF"/>
<stop offset="0.69" stop-color="#7588FF"/>
<stop offset="1" stop-color="#6459FE"/>
</radialGradient>
<linearGradient id="paint2_linear_1967_29308" x1="7.82741" y1="6.33203" x2="7.82741" y2="16.7435" gradientUnits="userSpaceOnUse">
<stop offset="0.801159" stop-color="#6864F6" stop-opacity="0"/>
<stop offset="1" stop-color="#5149DE"/>
</linearGradient>
<radialGradient id="paint3_radial_1967_29308" cx="0" cy="0" r="1" gradientTransform="matrix(-3.29407 7.65582 -6.13219 -2.64999 10.8169 5.98498)" gradientUnits="userSpaceOnUse">
<stop stop-color="#BD96FF"/>
<stop offset="0.686685" stop-color="#BD96FF" stop-opacity="0"/>
</radialGradient>
<radialGradient id="paint4_radial_1967_29308" cx="0" cy="0" r="1" gradientUnits="userSpaceOnUse" gradientTransform="translate(13.1985 3.5415) rotate(-90) scale(4.33811 5.4635)">
<stop offset="0.268201" stop-color="#6868F7"/>
<stop offset="1" stop-color="#3923B1"/>
</radialGradient>
<radialGradient id="paint5_radial_1967_29308" cx="0" cy="0" r="1" gradientTransform="matrix(2.3679 1.99487 -2.87909 3.43235 11.4097 3.0958)" gradientUnits="userSpaceOnUse">
<stop offset="0.270711" stop-color="#A1D3FF"/>
<stop offset="0.813393" stop-color="#A1D3FF" stop-opacity="0"/>
</radialGradient>
<radialGradient id="paint6_radial_1967_29308" cx="0" cy="0" r="1" gradientTransform="matrix(2.75309 -2.45463 6.00831 6.76822 14.9223 3.01971)" gradientUnits="userSpaceOnUse">
<stop stop-color="#E3ACFD"/>
<stop offset="0.816041" stop-color="#9FA2FF" stop-opacity="0"/>
</radialGradient>
<radialGradient id="paint7_radial_1967_29308" cx="0" cy="0" r="1" gradientUnits="userSpaceOnUse" gradientTransform="translate(6.70464 2.117) rotate(-90) scale(5.20574 6.55624)">
<stop offset="0.268201" stop-color="#8282FF"/>
<stop offset="1" stop-color="#3923B1"/>
</radialGradient>
<radialGradient id="paint8_radial_1967_29308" cx="0" cy="0" r="1" gradientTransform="matrix(2.84147 2.39384 -3.45489 4.1188 4.55813 1.58217)" gradientUnits="userSpaceOnUse">
<stop offset="0.270711" stop-color="#A1D3FF"/>
<stop offset="0.813393" stop-color="#A1D3FF" stop-opacity="0"/>
</radialGradient>
<radialGradient id="paint9_radial_1967_29308" cx="0" cy="0" r="1" gradientTransform="matrix(3.3037 -2.94556 7.20998 8.12187 8.77319 1.49083)" gradientUnits="userSpaceOnUse">
<stop stop-color="#E3ACFD"/>
<stop offset="0.816041" stop-color="#9FA2FF" stop-opacity="0"/>
</radialGradient>
<radialGradient id="paint10_radial_1967_29308" cx="0" cy="0" r="1" gradientTransform="matrix(6.9259 6.94098 -6.9259 6.94098 0.644531 8.5)" gradientUnits="userSpaceOnUse">
<stop offset="0.046875" stop-color="#688EFF"/>
<stop offset="0.946875" stop-color="#230F94"/>
</radialGradient>
<radialGradient id="paint11_radial_1967_29308" cx="0" cy="0" r="1" gradientUnits="userSpaceOnUse" gradientTransform="translate(4.10749 12.6646) rotate(90) scale(4.85869 5.65769)">
<stop offset="0.570647" stop-color="#6965F6" stop-opacity="0"/>
<stop offset="1" stop-color="#8F8FFF"/>
</radialGradient>
<clipPath id="clip0_1967_29308">
<rect width="17" height="17" fill="white"/>
</clipPath>
</defs>
</svg>
